<?xml version="1.0" encoding="UTF-8" standalone="no"?>
<!-- Created with Inkscape (http://www.inkscape.org/) -->

<svg
   viewBox="10 98 175 72"
   version="1.1"
   id="svg1"
   inkscape:version="1.4.3 (0d15f75, 2025-12-25)"
   sodipodi:docname="testB.svg"
   xmlns:inkscape="http://www.inkscape.org/namespaces/inkscape"
   xmlns:sodipodi="http://sodipodi.sourceforge.net/DTD/sodipodi-0.dtd"
   xmlns="http://www.w3.org/2000/svg"
   xmlns:svg="http://www.w3.org/2000/svg">
  <sodipodi:namedview
     id="namedview1"
     pagecolor="#ffffff"
     bordercolor="#999999"
     borderopacity="1"
     inkscape:showpageshadow="2"
     inkscape:pageopacity="0"
     inkscape:pagecheckerboard="0"
     inkscape:deskcolor="#d1d1d1"
     inkscape:document-units="mm"
     inkscape:zoom="0.45725152"
     inkscape:cx="188.08029"
     inkscape:cy="284.30742"
     inkscape:window-width="1512"
     inkscape:window-height="921"
     inkscape:window-x="0"
     inkscape:window-y="61"
     inkscape:window-maximized="0"
     inkscape:current-layer="layer1" />
  <defs
     id="defs1" />
  <g
     inkscape:label="Livello 1"
     inkscape:groupmode="layer"
     id="layer1">
    <g
       id="logo_grande_"
       style="display:inline"
       transform="translate(-24.550283,56.178929)">
      <g
         id="g21"
         style="display:inline"
         transform="matrix(1.0691355,0,0,1.0479443,98.078295,-4.7153526)">
        <path
           d="m 51.012677,71.016646 c -2.27791,-0.749417 -4.619649,-1.777104 -6.420057,-3.493705 -0.08556,0.201621 -0.175193,0.409489 -0.267814,0.623957 -3.487009,8.078084 -5.340111,10.579506 0.865234,12.576089 1.794161,-2.712319 4.550794,-5.952904 5.822637,-9.706341 z"
           style="display:inline;fill:#677f74;fill-opacity:1;stroke:none;stroke-width:0.0332468;stroke-dasharray:none;stroke-dashoffset:0;stroke-opacity:1"
           id="path16-0-3-4" />
        <path
           d="m 50.889091,53.282483 c -0.675645,0.128474 -1.334043,0.283472 -1.967995,0.465998 -0.400363,1.346443 -0.702128,2.435284 -0.946447,3.358739 2.422545,2.600671 3.875828,6.706829 3.713944,10.435875 -0.05297,1.20269 -0.298777,2.36063 -0.675916,3.473551 2.2445,0.738402 4.427072,1.206587 5.968766,1.797094 -0.311272,-1.284758 -0.730376,-2.750304 -1.193618,-4.418829 -1.523087,-5.230134 -3.833048,-10.973146 -4.898734,-15.112428 z"
           style="display:inline;fill:#677f74;fill-opacity:1;stroke:none;stroke-width:0.0332468;stroke-dasharray:none;stroke-dashoffset:0;stroke-opacity:1"
           id="path17-3-8-4" />
        <path
           d="m 45.467767,55.181868 c 0.915618,0.460607 1.757629,1.120987 2.506882,1.925352 0.244319,-0.923455 0.546084,-2.012296 0.946447,-3.358739 -1.267361,0.364917 -2.437077,0.840001 -3.453329,1.433387 z"
           style="display:inline;fill:#a1b5a8;fill-opacity:1;stroke:none;stroke-width:0.0332468;stroke-dasharray:none;stroke-dashoffset:0;stroke-opacity:1"
           id="path18-9-4-9" />
        <path
           d="m 44.59262,67.522941 c 2.34364,-5.494212 2.310096,-6.364063 3.382029,-10.415721 -0.749253,-0.804378 -1.591264,-1.464745 -2.506882,-1.925352 -2.436126,1.4224 -3.990042,3.524832 -3.891038,6.421075 0.403893,2.601989 1.524039,4.497517 3.015891,5.919998 z"
           style="display:inline;fill:#677f74;fill-opacity:1;stroke:none;stroke-width:0.0332468;stroke-dasharray:none;stroke-dashoffset:0;stroke-opacity:1"
           id="path19-8-8-1" />
        <path
           d="m 50.889091,53.282483 c 1.065686,4.139282 3.375647,9.882294 4.898734,15.112428 0.463242,1.668525 0.882346,3.134071 1.193618,4.418829 1.059439,0.405822 1.816162,0.869484 2.082346,1.518335 1.81331,3.569295 0.293888,16.246883 0.118153,16.243883 l -3.808603,-0.0649 c 0,0 4.226484,-2.26778 2.50145,-5.28992 -1.725035,-3.022138 -5.365779,-4.296561 -7.433593,-0.03124 -2.067678,4.26537 2.820599,5.23856 2.820599,5.23856 l -4.261659,0.0109 c -0.04617,-0.40661 -0.534948,-6.756061 -0.268221,-9.232427 8.862837,-0.475817 9.655549,-2.591178 8.250071,-8.392575 -1.541693,-0.590507 -3.724266,-1.058692 -5.968766,-1.797094 -1.271843,3.753437 -4.028476,6.994023 -5.822637,9.706341 0.429289,0.138144 0.897284,0.27398 1.405885,0.408959 0.504528,2.996688 0.566184,9.289786 0.566184,9.289786 l -3.0201,0.01 c -0.168674,0.0201 -1.868992,-4.241968 0.03259,-8.000933 0.275011,-0.543681 0.622272,-1.112893 1.015573,-1.707515 -6.205345,-1.99657 -4.352243,-4.498006 -0.865234,-12.576076 0.09235,-0.214468 0.181847,-0.422349 0.267814,-0.62397 -1.491852,-1.422495 -2.611998,-3.318023 -3.015891,-5.920011 -0.09914,-2.896244 1.454912,-4.998676 3.891038,-6.421076 -1.004844,-0.505505 -2.098371,-0.770534 -3.25532,-0.721317 -5.237033,-0.03056 -9.184974,4.902224 -8.799822,12.690751 0.385016,7.788528 6.532098,8.904476 8.199414,14.509956 0.957583,3.714949 0.299321,6.871511 -0.03259,10.525761 l 19.238441,0.003 c 0.252332,-5.991652 -0.780489,-12.184012 1.20584,-18.061584 1.207606,-3.179634 3.800726,-3.038204 7.612045,-5.89088 3.811455,-2.85269 5.68615,-7.316812 -0.693979,-12.259548 -3.51743,-2.724976 -11.582667,-3.925492 -18.052022,-2.695655 z"
           style="display:inline;fill:#a1b5a8;fill-opacity:1;stroke:none;stroke-width:0.0332468;stroke-dasharray:none;stroke-dashoffset:0;stroke-opacity:1"
           id="path20-6-0-5" />
        <path
           d="m 50.338118,49.215886 c -0.581259,1.787017 -1.042328,3.272636 -1.417022,4.532595 0.633952,-0.182526 1.29235,-0.337524 1.967995,-0.465998 -0.426845,-1.658312 -0.654052,-3.0592 -0.550973,-4.066597 z"
           style="display:inline;fill:#a1b5a8;fill-opacity:1;stroke:none;stroke-width:0.0332468;stroke-dasharray:none;stroke-dashoffset:0;stroke-opacity:1"
           id="path21-5-4-5" />
        <path
           d="m 51.012677,71.016646 c 0.377139,-1.112921 0.62363,-2.270861 0.675916,-3.473551 0.161884,-3.729046 -1.291399,-7.835204 -3.713944,-10.435875 -1.071933,4.051658 -1.038389,4.921509 -3.382029,10.415721 1.800408,1.716601 4.142147,2.744288 6.420057,3.493705 z"
           style="display:inline;fill:#3b4f44;fill-opacity:1;stroke:none;stroke-width:0.0332468;stroke-dasharray:none;stroke-dashoffset:0;stroke-opacity:1"
           id="path22-7-6-5" />
      </g>
      <g
         id="g2-5-8"
         transform="matrix(0.55424858,0,0,0.61024664,-26.686531,8.7003787)">
        <path
           style="font-weight:100;font-size:78.6908px;line-height:1;font-family:'Alumni Sans';-inkscape-font-specification:'Alumni Sans Thin';letter-spacing:8.0316px;fill:#3b4f44;stroke-width:5.33253"
           d="m 118.12007,150.6698 v -35.9617 h -2.43941 v -1.49512 h 2.43941 v -5.50836 q 0,-1.65251 0.31476,-2.99025 0.39346,-1.33774 1.10167,-2.20334 0.78691,-0.94429 1.88858,-1.41644 1.18037,-0.47214 2.67549,-0.47214 1.02298,0 2.04596,0.0787 1.10167,0 2.04596,0.0787 1.02298,0.0787 1.57382,0.15738 v 1.57382 q -1.02298,-0.15738 -2.28203,-0.23607 -1.25906,-0.15739 -3.06895,-0.15739 -2.20334,0 -3.3837,1.33775 -1.10167,1.25905 -1.10167,4.64276 v 5.1149 h 9.83635 v 1.49512 h -9.83635 v 35.9617 z m 31.95362,0.55084 q -3.46239,0 -5.58704,-1.02299 -2.12466,-1.02298 -3.06895,-3.30501 -0.94429,-2.36072 -0.94429,-6.05919 v -19.43663 q 0,-5.35097 2.04597,-7.79039 2.12465,-2.5181 7.55431,-2.5181 5.42967,0 7.39694,2.43941 2.04596,2.36072 2.04596,7.86908 v 19.43663 q 0,3.61978 -0.8656,5.9805 -0.8656,2.28203 -2.91156,3.3837 -2.04596,1.02299 -5.66574,1.02299 z m 0,-1.49513 q 4.17062,0 5.82312,-1.96727 1.7312,-2.04596 1.7312,-7.31824 v -18.64973 q 0,-4.87882 -1.65251,-7.00348 -1.57381,-2.20334 -5.90181,-2.20334 -4.17061,0 -5.9805,2.04596 -1.7312,2.04596 -1.7312,7.16086 V 140.44 q 0,5.19359 1.7312,7.23955 1.80989,2.04596 5.9805,2.04596 z m 26.36657,0.94429 v -38.95195 h 1.49513 l 0.39345,3.85585 q 1.02298,-2.5181 3.38371,-3.3837 2.36072,-0.94429 4.64276,-1.02298 1.96727,0 3.3837,0.23607 v 1.65251 q -0.47214,-0.15739 -1.02298,-0.15739 -0.55084,-0.0787 -1.18036,-0.0787 -0.55084,-0.0787 -1.18036,0 -3.30502,0 -5.66574,1.57382 -2.36073,1.57382 -2.36073,4.48538 v 31.79108 z m 26.36654,0 v -38.95195 h 1.49513 l 0.39345,4.09192 q 0.94429,-2.20334 2.99025,-3.3837 2.04596,-1.25905 5.11491,-1.25905 4.56406,0 6.45264,1.88858 1.88858,1.88858 1.80989,5.50835 l -0.78691,0.0787 q 0.94429,-3.46239 3.22632,-5.42966 2.36073,-2.04596 6.0592,-2.04596 4.80014,0 6.61002,2.20334 1.80989,2.12465 1.80989,6.61003 v 30.68941 h -1.88858 v -29.66643 q 0,-4.80014 -1.49512,-6.53134 -1.41644,-1.7312 -5.1149,-1.7312 -3.4624,0 -5.74443,2.12465 -2.28204,2.12466 -2.43942,5.27229 v 30.53203 h -1.88858 v -30.45334 q 0,-4.09192 -1.41643,-5.74443 -1.41644,-1.7312 -5.35098,-1.7312 -3.54108,0 -5.35097,1.80989 -1.80989,1.7312 -2.5968,4.09192 v 32.02716 z m 61.30532,0.70822 q -3.85585,0 -6.05919,-0.8656 -2.12465,-0.94429 -3.06894,-3.14763 -0.8656,-2.20335 -0.8656,-6.21658 v -20.77437 q 0,-5.35097 2.04596,-7.31824 2.12465,-1.96727 7.47563,-1.96727 5.27228,0 7.31824,1.96727 2.04596,1.96727 2.04596,7.31824 v 9.67897 h -16.99721 v 11.25278 q 0,4.72145 1.49513,6.61003 1.57381,1.88858 6.45264,1.88858 4.328,0 5.74443,-1.80989 1.41644,-1.80989 1.41644,-6.68872 v -4.2493 h 1.88857 v 4.01323 q 0,3.85585 -0.86559,6.13788 -0.8656,2.28204 -2.83287,3.22633 -1.88858,0.94429 -5.1936,0.94429 z m -8.10515,-22.82034 h 15.10864 v -8.10515 q 0,-4.17061 -1.41644,-6.05919 -1.41643,-1.88858 -6.05919,-1.88858 -4.56407,0 -6.13788,1.88858 -1.49513,1.88858 -1.49513,6.05919 z m 63.27764,22.11212 -9.67897,-38.95195 h 1.96727 l 8.97076,36.66992 h -0.31477 l 8.5773,-36.66992 h 1.80989 l -9.20683,38.95195 z m 34.07823,0.70822 q -3.85585,0 -6.05919,-0.8656 -2.12465,-0.94429 -3.06894,-3.14763 -0.8656,-2.20335 -0.8656,-6.21658 v -20.77437 q 0,-5.35097 2.04596,-7.31824 2.12465,-1.96727 7.47563,-1.96727 5.27228,0 7.31824,1.96727 2.04596,1.96727 2.04596,7.31824 v 9.67897 h -16.99721 v 11.25278 q 0,4.72145 1.49512,6.61003 1.57382,1.88858 6.45265,1.88858 4.32799,0 5.74443,-1.80989 1.41643,-1.80989 1.41643,-6.68872 v -4.2493 h 1.88858 v 4.01323 q 0,3.85585 -0.8656,6.13788 -0.8656,2.28204 -2.83287,3.22633 -1.88857,0.94429 -5.19359,0.94429 z m -8.10515,-22.82034 h 15.10863 v -8.10515 q 0,-4.17061 -1.41643,-6.05919 -1.41644,-1.88858 -6.05919,-1.88858 -4.56407,0 -6.13789,1.88858 -1.49512,1.88858 -1.49512,6.05919 z m 33.52744,22.11212 v -38.95195 h 1.49512 l 0.39346,3.85585 q 1.02298,-2.5181 3.3837,-3.3837 2.36073,-0.94429 4.64276,-1.02298 1.96727,0 3.3837,0.23607 v 1.65251 q -0.47214,-0.15739 -1.02298,-0.15739 -0.55083,-0.0787 -1.18036,-0.0787 -0.55083,-0.0787 -1.18036,0 -3.30501,0 -5.66574,1.57382 -2.36072,1.57382 -2.36072,4.48538 v 31.79108 z m 34.39301,0.62953 q -3.22633,0 -5.11491,-0.8656 -1.80988,-0.8656 -2.75417,-2.36073 -0.8656,-1.49512 -1.10167,-3.3837 -0.23608,-1.88858 -0.23608,-3.85585 v -19.6727 q 0,-1.88858 0.23608,-3.69847 0.23607,-1.80989 1.10167,-3.22632 0.94429,-1.49513 2.83287,-2.36073 1.88857,-0.94429 5.19359,-0.94429 3.22632,0 5.1149,0.94429 1.88858,0.8656 2.75418,2.28204 v -13.06268 h 1.80989 v 49.57521 h -1.33775 l -0.23607,-3.69847 q -0.47214,1.18036 -1.41643,2.20334 -0.94429,0.94429 -2.5968,1.49513 -1.57382,0.62953 -4.2493,0.62953 z m 0.0787,-1.41644 q 3.06894,0 4.72145,-1.10167 1.6525,-1.10167 2.28203,-2.83287 0.62953,-1.80989 0.70822,-3.85585 0.15738,-2.12465 0.15738,-4.01323 v -20.61699 q -0.23607,-1.02298 -1.02298,-2.20334 -0.70822,-1.18036 -2.28204,-2.04596 -1.57381,-0.8656 -4.32799,-0.8656 -2.99025,0 -4.56407,0.8656 -1.57381,0.78691 -2.28203,2.20334 -0.62953,1.41643 -0.70822,3.14763 -0.0787,1.65251 -0.0787,3.38371 v 18.41364 q 0,2.28204 0.23607,4.48538 0.31477,2.20334 1.80989,3.61978 1.57382,1.41643 5.35098,1.41643 z m 27.86164,0.78691 v -38.95195 h 1.80989 v 38.95195 z m 0.94429,-44.14554 q -0.70822,0 -1.25905,-0.47215 -0.47215,-0.55083 -0.47215,-1.25905 0,-0.70822 0.47215,-1.18036 0.55083,-0.47215 1.25905,-0.47215 0.70822,0 1.18036,0.47215 0.55084,0.47214 0.55084,1.18036 0,0.70822 -0.55084,1.25905 -0.47214,0.47215 -1.18036,0.47215 z"
           id="text22-4-2"
           transform="scale(1.107381,0.90303157)"
           aria-label="forme verdi" />
        <path
           style="font-weight:100;font-size:17.409px;line-height:1;font-family:'Alumni Sans';-inkscape-font-specification:'Alumni Sans Thin';letter-spacing:10.3755px;fill:#3b4f44;stroke-width:6.30471"
           d="m 117.74181,168.18542 v -10.28871 h 0.4004 l 2.82026,9.62717 2.88989,-9.62717 h 0.33078 v 10.28871 h -0.40041 v -8.79154 l -2.62876,8.79154 h -0.36559 l -2.62876,-8.79154 v 8.79154 z m 20.87314,0.12187 q -0.36559,0 -0.78341,-0.10446 -0.41781,-0.10445 -0.73117,-0.52227 -0.29596,-0.43522 -0.29596,-1.37531 v -0.60931 q 0,-0.92268 0.55709,-1.46236 0.55709,-0.55709 1.41013,-1.00972 0.62672,-0.33077 1.04454,-0.59191 0.43522,-0.26113 0.66154,-0.57449 0.22632,-0.31337 0.22632,-0.78341 v -0.29595 q 0,-0.53968 -0.24373,-0.80082 -0.22631,-0.27854 -0.60931,-0.36558 -0.36559,-0.10446 -0.766,-0.10446 -1.02713,0 -1.3579,0.50486 -0.31336,0.50486 -0.31336,1.42754 v 0.73118 h -0.383 v -0.766 q 0,-0.64413 0.15668,-1.13158 0.17409,-0.50486 0.60932,-0.78341 0.45263,-0.29595 1.28826,-0.29595 0.92268,0 1.34049,0.24373 0.43523,0.24372 0.55709,0.66154 0.12187,0.4004 0.12187,0.87045 v 7.01582 h -0.40041 l -0.0174,-1.1664 q -0.26114,0.66154 -0.83563,0.97491 -0.5745,0.31336 -1.23604,0.31336 z m 0.0696,-0.33077 q 1.02714,0 1.51459,-0.69636 0.48745,-0.69636 0.48745,-1.82795 v -3.15103 q -0.24373,0.36559 -0.766,0.66154 -0.50486,0.29596 -1.04454,0.5745 -0.7834,0.43523 -1.21863,0.90527 -0.43522,0.47004 -0.43522,1.30567 v 0.52227 q 0,0.83564 0.22632,1.20123 0.24372,0.34818 0.5919,0.43522 0.34818,0.0696 0.64413,0.0696 z m 16.39901,2.22835 q -0.15668,0 -0.36559,-0.0174 -0.1915,-0.0174 -0.383,-0.0348 -0.17409,-0.0174 -0.31336,-0.0348 -0.13927,-0.0174 -0.1915,-0.0348 v -0.31337 q 0.1915,0.0174 0.53968,0.0696 0.34818,0.0522 0.66154,0.0522 0.20891,0 0.53968,-0.0348 0.33077,-0.0174 0.66154,-0.20891 0.34818,-0.17409 0.5745,-0.60931 0.24372,-0.43523 0.24372,-1.25345 v -1.149 q -0.12186,0.41782 -0.38299,0.69636 -0.26114,0.26114 -0.62673,0.383 -0.36559,0.12186 -0.80081,0.12186 -0.27855,0 -0.62673,-0.0348 -0.33077,-0.0522 -0.64413,-0.22632 -0.29595,-0.1915 -0.50486,-0.60932 -0.1915,-0.41781 -0.1915,-1.1664 v -4.2652 q 0,-1.18382 0.43523,-1.65386 0.45263,-0.48745 1.51458,-0.48745 0.40041,0 0.7834,0.12186 0.40041,0.10446 0.69636,0.34818 0.31337,0.22632 0.45264,0.60932 l -0.12187,-0.0348 0.0871,-0.87045 h 0.33077 v 8.28668 q 0,0.71377 -0.20891,1.16641 -0.20891,0.47004 -0.55709,0.71377 -0.33077,0.26113 -0.76599,0.36558 -0.41782,0.10446 -0.83563,0.10446 z m 0.1915,-2.6984 q 0.76599,0 1.13158,-0.38299 0.383,-0.383 0.50486,-0.9575 0.12186,-0.5745 0.12186,-1.13158 v -4.17816 q -0.0696,-0.22632 -0.26113,-0.48746 -0.1915,-0.26113 -0.55709,-0.45263 -0.34818,-0.1915 -0.95749,-0.1915 -0.85304,0 -1.21863,0.40041 -0.34818,0.383 -0.34818,1.42754 v 4.30002 q 0,0.5919 0.17409,0.94008 0.17409,0.33078 0.43522,0.48746 0.26114,0.13927 0.52227,0.1915 0.27855,0.0348 0.45264,0.0348 z m 16.38161,0.81823 q -0.71377,0 -1.13159,-0.1915 -0.4004,-0.1915 -0.60931,-0.52227 -0.1915,-0.33077 -0.24373,-0.74859 -0.0522,-0.41782 -0.0522,-0.85304 v -4.35225 q 0,-0.41782 0.0522,-0.81822 0.0522,-0.40041 0.24373,-0.71377 0.20891,-0.33077 0.62672,-0.52227 0.41782,-0.20891 1.149,-0.20891 0.71376,0 1.13158,0.20891 0.41782,0.1915 0.60932,0.50486 v -2.8899 h 0.4004 v 10.96767 h -0.29595 l -0.0522,-0.81822 q -0.10445,0.26114 -0.31336,0.48745 -0.20891,0.20891 -0.5745,0.33077 -0.34818,0.13928 -0.94008,0.13928 z m 0.0174,-0.31337 q 0.67895,0 1.04454,-0.24372 0.36559,-0.24373 0.50486,-0.62673 0.13927,-0.4004 0.15668,-0.85304 0.0348,-0.47004 0.0348,-0.88786 v -4.56115 q -0.0522,-0.22632 -0.22632,-0.48746 -0.15668,-0.26113 -0.50486,-0.45263 -0.34818,-0.1915 -0.9575,-0.1915 -0.66154,0 -1.00972,0.1915 -0.34818,0.17409 -0.50486,0.48745 -0.13927,0.31336 -0.15668,0.69636 -0.0174,0.36559 -0.0174,0.74859 v 4.07371 q 0,0.50486 0.0522,0.99231 0.0696,0.48745 0.4004,0.80081 0.34818,0.31336 1.18382,0.31336 z m 16.34677,0.29596 q -0.36559,0 -0.7834,-0.10446 -0.41782,-0.10445 -0.73118,-0.52227 -0.29595,-0.43522 -0.29595,-1.37531 v -0.60931 q 0,-0.92268 0.55708,-1.46236 0.55709,-0.55709 1.41013,-1.00972 0.62673,-0.33077 1.04454,-0.59191 0.43523,-0.26113 0.66154,-0.57449 0.22632,-0.31337 0.22632,-0.78341 v -0.29595 q 0,-0.53968 -0.24372,-0.80082 -0.22632,-0.27854 -0.60932,-0.36558 -0.36559,-0.10446 -0.766,-0.10446 -1.02713,0 -1.3579,0.50486 -0.31336,0.50486 -0.31336,1.42754 v 0.73118 h -0.383 v -0.766 q 0,-0.64413 0.15668,-1.13158 0.17409,-0.50486 0.60932,-0.78341 0.45263,-0.29595 1.28826,-0.29595 0.92268,0 1.3405,0.24373 0.43522,0.24372 0.55709,0.66154 0.12186,0.4004 0.12186,0.87045 v 7.01582 h -0.40041 l -0.0174,-1.1664 q -0.26113,0.66154 -0.83563,0.97491 -0.5745,0.31336 -1.23604,0.31336 z m 0.0696,-0.33077 q 1.02713,0 1.51458,-0.69636 0.48745,-0.69636 0.48745,-1.82795 v -3.15103 q -0.24372,0.36559 -0.76599,0.66154 -0.50486,0.29596 -1.04454,0.5745 -0.78341,0.43523 -1.21863,0.90527 -0.43523,0.47004 -0.43523,1.30567 v 0.52227 q 0,0.83564 0.22632,1.20123 0.24372,0.34818 0.5919,0.43522 0.34818,0.0696 0.64414,0.0696 z m 14.8496,0.2089 V 157.1133 h 0.40041 v 11.07212 z m 14.95405,0.15669 q -0.85304,0 -1.34049,-0.1915 -0.47005,-0.20891 -0.67896,-0.69636 -0.19149,-0.48746 -0.19149,-1.37531 v -4.59598 q 0,-1.18381 0.45263,-1.61904 0.47004,-0.43522 1.65386,-0.43522 1.1664,0 1.61903,0.43522 0.45264,0.43523 0.45264,1.61904 v 2.14131 h -3.76035 v 2.48948 q 0,1.04454 0.33077,1.46236 0.34818,0.41782 1.42754,0.41782 0.9575,0 1.27086,-0.40041 0.31336,-0.40041 0.31336,-1.47977 v -0.94008 h 0.41782 v 0.88786 q 0,0.85304 -0.1915,1.3579 -0.1915,0.50486 -0.62673,0.71377 -0.41781,0.20891 -1.14899,0.20891 z m -1.79313,-5.04861 h 3.34253 v -1.79313 q 0,-0.92268 -0.31336,-1.34049 -0.31336,-0.41782 -1.34049,-0.41782 -1.00973,0 -1.35791,0.41782 -0.33077,0.41781 -0.33077,1.34049 z m 16.01603,4.89192 v -8.61745 h 0.31336 l 0.10445,0.85304 q 0.13928,-0.50486 0.66155,-0.74859 0.53967,-0.26113 1.07935,-0.26113 0.97491,0 1.41013,0.34818 0.43523,0.34818 0.53968,0.87045 0.12186,0.52227 0.12186,1.07936 v 6.47614 h -0.41781 v -6.31946 q 0,-0.383 -0.0174,-0.74859 -0.0174,-0.383 -0.17409,-0.67895 -0.13927,-0.31336 -0.48745,-0.48745 -0.34818,-0.1915 -1.00972,-0.1915 -0.60932,0 -0.97491,0.22632 -0.34818,0.22631 -0.50486,0.53967 -0.15668,0.29596 -0.22632,0.55709 v 7.10287 z m 18.24436,0.12187 q -0.36559,0 -0.78341,-0.10446 -0.41781,-0.10445 -0.73118,-0.52227 -0.29595,-0.43522 -0.29595,-1.37531 v -0.60931 q 0,-0.92268 0.55709,-1.46236 0.55709,-0.55709 1.41013,-1.00972 0.62672,-0.33077 1.04454,-0.59191 0.43522,-0.26113 0.66154,-0.57449 0.22632,-0.31337 0.22632,-0.78341 v -0.29595 q 0,-0.53968 -0.24373,-0.80082 -0.22632,-0.27854 -0.60931,-0.36558 -0.36559,-0.10446 -0.766,-0.10446 -1.02713,0 -1.3579,0.50486 -0.31336,0.50486 -0.31336,1.42754 v 0.73118 h -0.383 v -0.766 q 0,-0.64413 0.15668,-1.13158 0.17409,-0.50486 0.60931,-0.78341 0.45264,-0.29595 1.28827,-0.29595 0.92268,0 1.34049,0.24373 0.43523,0.24372 0.55709,0.66154 0.12186,0.4004 0.12186,0.87045 v 7.01582 h -0.4004 l -0.0174,-1.1664 q -0.26114,0.66154 -0.83563,0.97491 -0.5745,0.31336 -1.23604,0.31336 z m 0.0696,-0.33077 q 1.02713,0 1.51459,-0.69636 0.48745,-0.69636 0.48745,-1.82795 v -3.15103 q -0.24373,0.36559 -0.766,0.66154 -0.50486,0.29596 -1.04454,0.5745 -0.7834,0.43523 -1.21863,0.90527 -0.43522,0.47004 -0.43522,1.30567 v 0.52227 q 0,0.83564 0.22631,1.20123 0.24373,0.34818 0.59191,0.43522 0.34818,0.0696 0.64413,0.0696 z m 30.63929,0.31336 q -0.67895,0 -1.18381,-0.27855 -0.50486,-0.27854 -0.7834,-0.92267 -0.27855,-0.66154 -0.27855,-1.79313 v -0.55709 q 0.087,0 0.1915,0 0.10446,0 0.1915,0 v 0.55709 q 0,1.02713 0.22632,1.61904 0.24372,0.57449 0.66154,0.81822 0.43523,0.22632 0.9749,0.22632 0.85305,0 1.42754,-0.52227 0.5745,-0.52227 0.5745,-1.84536 0,-0.85304 -0.26114,-1.30567 -0.24372,-0.45264 -0.73117,-0.71377 -0.48746,-0.26114 -1.16641,-0.52227 -0.52227,-0.20891 -0.99231,-0.48745 -0.47004,-0.27855 -0.766,-0.766 -0.27854,-0.50486 -0.27854,-1.32308 0,-0.83563 0.22632,-1.41013 0.22631,-0.5745 0.73118,-0.87045 0.50486,-0.29595 1.30567,-0.29595 1.04454,0 1.63645,0.5919 0.5919,0.5745 0.5919,1.60163 v 1.06195 q -0.087,0 -0.1915,0 -0.087,0 -0.1915,0 v -1.02713 q 0,-0.88786 -0.48745,-1.39272 -0.48745,-0.50486 -1.3579,-0.50486 -0.9749,0 -1.42754,0.55708 -0.45263,0.55709 -0.45263,1.67127 0,0.74859 0.27854,1.20122 0.29596,0.43522 0.74859,0.69636 0.45263,0.24373 0.95749,0.43522 0.80082,0.31337 1.28827,0.64414 0.48745,0.31336 0.71377,0.80081 0.22632,0.48745 0.22632,1.34049 0,1.00973 -0.31337,1.60163 -0.31336,0.59191 -0.85304,0.85304 -0.53968,0.26114 -1.23604,0.26114 z m 13.87472,-0.10446 v -0.19149 l 3.13362,-8.07778 h -2.99435 v -0.34818 h 3.49921 v 0.20891 l -3.16844,8.04296 h 3.16844 v 0.36558 z m 17.37391,0.15669 q -0.83563,0 -1.32308,-0.1915 -0.47004,-0.20891 -0.67895,-0.69636 -0.1915,-0.48746 -0.1915,-1.37531 v -4.57857 q 0,-1.21863 0.45263,-1.65386 0.47005,-0.45263 1.65386,-0.45263 1.1664,0 1.61903,0.45263 0.45264,0.43523 0.45264,1.63645 v 1.00972 h -0.41782 v -0.99231 q 0,-0.94009 -0.31336,-1.3579 -0.31336,-0.43523 -1.34049,-0.43523 -1.00972,0 -1.3579,0.43523 -0.33078,0.41781 -0.33078,1.3579 v 4.59597 q 0,1.04454 0.33078,1.47977 0.34818,0.41782 1.42753,0.41782 0.9575,0 1.27086,-0.40041 0.31336,-0.41782 0.31336,-1.49718 v -0.92267 h 0.41782 v 0.90527 q 0,0.85304 -0.1915,1.3579 -0.1915,0.48745 -0.62672,0.69636 -0.43523,0.20891 -1.16641,0.20891 z m 13.40467,-0.15669 v -0.19149 l 3.13362,-8.07778 h -2.99435 v -0.34818 h 3.49921 v 0.20891 l -3.16844,8.04296 h 3.16844 v 0.36558 z m 17.39134,0.15669 q -0.85304,0 -1.3405,-0.1915 -0.47004,-0.20891 -0.67895,-0.69636 -0.1915,-0.48746 -0.1915,-1.37531 v -4.59598 q 0,-1.18381 0.45264,-1.61904 0.47004,-0.43522 1.65385,-0.43522 1.16641,0 1.61904,0.43522 0.45263,0.43523 0.45263,1.61904 v 2.14131 h -3.76034 v 2.48948 q 0,1.04454 0.33077,1.46236 0.34818,0.41782 1.42754,0.41782 0.95749,0 1.27086,-0.40041 0.31336,-0.40041 0.31336,-1.47977 v -0.94008 h 0.41781 v 0.88786 q 0,0.85304 -0.1915,1.3579 -0.19149,0.50486 -0.62672,0.71377 -0.41782,0.20891 -1.14899,0.20891 z m -1.79313,-5.04861 h 3.34253 v -1.79313 q 0,-0.92268 -0.31336,-1.34049 -0.31337,-0.41782 -1.3405,-0.41782 -1.00972,0 -1.3579,0.41782 -0.33077,0.41781 -0.33077,1.34049 z m 16.01602,6.91137 v -10.6369 h 0.31336 l 0.0522,0.81822 q 0.17409,-0.4004 0.53968,-0.66154 0.38299,-0.27854 1.23603,-0.27854 0.97491,0 1.41013,0.34818 0.43523,0.33077 0.53968,0.85304 0.12187,0.50486 0.12187,1.06195 v 4.30002 q 0,0.55709 -0.12187,1.09677 -0.10445,0.52227 -0.53968,0.87045 -0.43522,0.33077 -1.41013,0.33077 -0.69636,0 -1.13158,-0.1915 -0.41782,-0.20891 -0.60932,-0.52227 v 2.61135 z m 2.10649,-2.21094 q 0.66154,0 1.00972,-0.17409 0.34818,-0.1915 0.48745,-0.48746 0.15668,-0.31336 0.17409,-0.67895 0.0174,-0.383 0.0174,-0.76599 v -4.02148 q 0,-0.383 -0.0174,-0.74859 -0.0174,-0.383 -0.17409,-0.69636 -0.13927,-0.31336 -0.48745,-0.48745 -0.34818,-0.1915 -1.00972,-0.1915 -0.66155,0 -1.00973,0.24373 -0.34818,0.24372 -0.50486,0.64413 -0.13927,0.383 -0.15668,0.85304 -0.0174,0.45263 -0.0174,0.87045 v 3.69071 q 0,0.52227 0.087,0.9749 0.10445,0.43523 0.45263,0.71377 0.36559,0.26114 1.149,0.26114 z m 16.03341,0.31336 q -0.36559,0 -0.78341,-0.10446 -0.41782,-0.10445 -0.73118,-0.52227 -0.29595,-0.43522 -0.29595,-1.37531 v -0.60931 q 0,-0.92268 0.55709,-1.46236 0.55709,-0.55709 1.41013,-1.00972 0.62672,-0.33077 1.04454,-0.59191 0.43522,-0.26113 0.66154,-0.57449 0.22632,-0.31337 0.22632,-0.78341 v -0.29595 q 0,-0.53968 -0.24373,-0.80082 -0.22632,-0.27854 -0.60932,-0.36558 -0.36558,-0.10446 -0.76599,-0.10446 -1.02713,0 -1.3579,0.50486 -0.31337,0.50486 -0.31337,1.42754 v 0.73118 h -0.38299 v -0.766 q 0,-0.64413 0.15668,-1.13158 0.17409,-0.50486 0.60931,-0.78341 0.45264,-0.29595 1.28827,-0.29595 0.92268,0 1.34049,0.24373 0.43523,0.24372 0.55709,0.66154 0.12186,0.4004 0.12186,0.87045 v 7.01582 h -0.4004 l -0.0174,-1.1664 q -0.26114,0.66154 -0.83564,0.97491 -0.57449,0.31336 -1.23603,0.31336 z m 0.0696,-0.33077 q 1.02713,0 1.51458,-0.69636 0.48746,-0.69636 0.48746,-1.82795 v -3.15103 q -0.24373,0.36559 -0.766,0.66154 -0.50486,0.29596 -1.04454,0.5745 -0.7834,0.43523 -1.21863,0.90527 -0.43522,0.47004 -0.43522,1.30567 v 0.52227 q 0,0.83564 0.22631,1.20123 0.24373,0.34818 0.59191,0.43522 0.34818,0.0696 0.64413,0.0696 z m 14.8496,0.2089 v -8.61745 h 0.31336 l 0.10445,0.85304 q 0.13927,-0.50486 0.66154,-0.74859 0.53968,-0.26113 1.07936,-0.26113 0.97491,0 1.41013,0.34818 0.43523,0.34818 0.53968,0.87045 0.12186,0.52227 0.12186,1.07936 v 6.47614 h -0.41781 v -6.31946 q 0,-0.383 -0.0174,-0.74859 -0.0174,-0.383 -0.17409,-0.67895 -0.13927,-0.31336 -0.48745,-0.48745 -0.34818,-0.1915 -1.00973,-0.1915 -0.60931,0 -0.9749,0.22632 -0.34818,0.22631 -0.50486,0.53967 -0.15668,0.29596 -0.22632,0.55709 v 7.10287 z m 18.43587,0.10446 q -0.81822,0 -1.28827,-0.1915 -0.47004,-0.20891 -0.66154,-0.67895 -0.17409,-0.48745 -0.17409,-1.30568 v -0.81822 h 0.41782 v 0.92268 q 0,1.00972 0.36559,1.37531 0.38299,0.36559 1.34049,0.36559 0.83563,0 1.23604,-0.383 0.40041,-0.40041 0.40041,-1.3579 v -0.36559 q 0,-0.383 -0.10446,-0.71377 -0.10445,-0.33077 -0.45263,-0.62672 -0.33077,-0.29596 -1.00972,-0.55709 -0.64414,-0.26114 -1.11418,-0.53968 -0.45263,-0.27855 -0.71377,-0.67895 -0.24373,-0.40041 -0.24373,-1.02713 v -0.53968 q 0,-0.78341 0.47005,-1.25345 0.48745,-0.48745 1.56681,-0.48745 0.69636,0 1.13158,0.20891 0.45264,0.19149 0.67895,0.66154 0.22632,0.47004 0.22632,1.25345 v 0.80081 h -0.41782 v -0.74859 q 0,-1.07936 -0.4004,-1.46235 -0.40041,-0.383 -1.21863,-0.383 -0.9575,0 -1.28827,0.43522 -0.33077,0.43523 -0.33077,1.07936 v 0.34818 q 0,0.53968 0.1915,0.90527 0.20891,0.34818 0.62672,0.60931 0.41782,0.24373 1.07936,0.52227 0.53968,0.22632 0.92268,0.47005 0.40041,0.24372 0.60931,0.66154 0.22632,0.40041 0.22632,1.14899 v 0.29596 q 0,0.64413 -0.1915,1.11417 -0.1915,0.45264 -0.64413,0.69636 -0.45264,0.24373 -1.23604,0.24373 z m 17.77432,-0.10446 -2.59394,-5.01379 2.54172,-3.60366 h 0.43522 l -2.5243,3.58625 2.57653,5.0312 z m -3.41216,0 V 157.1133 h 0.40041 v 11.07212 z m 17.25207,0.12187 q -0.36559,0 -0.78341,-0.10446 -0.41782,-0.10445 -0.73118,-0.52227 -0.29595,-0.43522 -0.29595,-1.37531 v -0.60931 q 0,-0.92268 0.55709,-1.46236 0.55709,-0.55709 1.41013,-1.00972 0.62672,-0.33077 1.04454,-0.59191 0.43522,-0.26113 0.66154,-0.57449 0.22632,-0.31337 0.22632,-0.78341 v -0.29595 q 0,-0.53968 -0.24373,-0.80082 -0.22632,-0.27854 -0.60932,-0.36558 -0.36558,-0.10446 -0.76599,-0.10446 -1.02713,0 -1.3579,0.50486 -0.31337,0.50486 -0.31337,1.42754 v 0.73118 h -0.38299 v -0.766 q 0,-0.64413 0.15668,-1.13158 0.17409,-0.50486 0.60931,-0.78341 0.45264,-0.29595 1.28827,-0.29595 0.92268,0 1.34049,0.24373 0.43523,0.24372 0.55709,0.66154 0.12186,0.4004 0.12186,0.87045 v 7.01582 h -0.4004 l -0.0174,-1.1664 q -0.26114,0.66154 -0.83564,0.97491 -0.57449,0.31336 -1.23603,0.31336 z m 0.0696,-0.33077 q 1.02713,0 1.51458,-0.69636 0.48746,-0.69636 0.48746,-1.82795 v -3.15103 q -0.24373,0.36559 -0.766,0.66154 -0.50486,0.29596 -1.04454,0.5745 -0.7834,0.43523 -1.21863,0.90527 -0.43522,0.47004 -0.43522,1.30567 v 0.52227 q 0,0.83564 0.22631,1.20123 0.24373,0.34818 0.59191,0.43522 0.34818,0.0696 0.64413,0.0696 z"
           id="text23-6-8"
           transform="scale(1.107381,0.90303157)"
           aria-label="Magdalena Szczepanska" />
      </g>
    </g>
  </g>
</svg>
